<svg xmlns="http://www.w3.org/2000/svg" viewBox="0 0 2119.56 1087.54"><defs><style>.cls-1{fill:#734293;opacity:0.3;}</style></defs><g id="Ebene_2" data-name="Ebene 2"><g id="Ebene_4" data-name="Ebene 4"><path class="cls-1" d="M2098.08,178.18c-47-47.67-137.43,11.13-260.25-9-93-15.22-142.93-65.59-192.95-98.71-205-135.75-514.25-50.07-857,44.87C544,182.91,422,216.69,294.29,321.76,165.67,427.54-52.75,670.1,11.6,851.23c76.09,214.17,506,225.64,794.21,233.33,308.94,8.24,836.51,22.32,1117.27-309.61,149.15-176.33,179.36-392,192.94-489.08C2121.25,248.56,2124.29,204.77,2098.08,178.18ZM1967,347.74c-11.67,73.78-37.62,237.72-165.73,371.75-241.14,252.3-694.25,241.6-959.6,235.33C594.1,949,224.86,940.26,159.52,777.47,104.25,639.8,291.85,455.43,402.31,375,512,295.16,616.77,269.48,826.23,218.14c294.4-72.17,560-137.29,736.09-34.11,43,25.18,85.85,63.46,165.72,75,105.48,15.28,183.17-29.41,223.52,6.82C1974.07,286.1,1971.46,319.38,1967,347.74Z"/><path class="cls-1" d="M1567.73,452.64c-47.91-134.25-393.93-102-426.27-98.71C900.09,378.41,630.77,507.2,638.91,618.66c3.54,48.48,58.51,79.18,125.63,116.66,36.39,20.32,320.51,173.06,578.83,26.93C1459.64,696.48,1603.11,551.81,1567.73,452.64ZM1222,672.44c-126.3,71.45-265.22-3.23-283-13.16-32.82-18.33-59.7-33.34-61.43-57-4-54.5,127.7-117.46,245.71-129.43,15.81-1.61,185-17.38,208.4,48.26C1349,569.56,1278.88,640.29,1222,672.44Z"/></g></g></svg>