<svg xmlns="http://www.w3.org/2000/svg" viewBox="0 0 2983.41 1193.83"><defs><style>.cls-1{fill:#734293;opacity:0.3;}</style></defs><g id="Ebene_2" data-name="Ebene 2"><g id="Ebene_4" data-name="Ebene 4"><path class="cls-1" d="M2962.29,254.14C2846.79-27.61,2258.2-12,1360.42,11.84,557.93,33.15,126.25,49.64,23.28,299-80.22,549.66,176.21,968.07,498.9,1106.68c197,84.62,291.79,10.46,704.47-4.48,695.73-25.2,817.56,171.41,1139.71,53.84C2742.27,1010.35,3071.31,520.07,2962.29,254.14Zm-716.08,758.35c-285.49,87.38-393.47-58.75-1010-40-365.73,11.1-449.74,66.22-624.32,3.33-286-103-513.23-414-421.51-600.3,91.26-185.35,473.82-197.61,1185-213.44C2171,144.35,2692.61,132.73,2795,342.15,2891.58,539.8,2600,904.2,2246.21,1012.49Z"/><path class="cls-1" d="M2408.83,343.53c-48.93-85.82-176.38-38.3-556.39-58.33-330.26-17.41-573.61-71.2-942.28-35.9-78.1,7.48-202.08,22.81-269.22,116.66-40.34,56.39-60.08,141-31.41,210.9,34.35,83.74,128.19,122,246.79,152.56,381.69,98.4,526.81-9.64,955.74,40.38,183.18,21.36,244.77,51.34,345.5,9C2342.81,700.86,2473.48,456.91,2408.83,343.53ZM2022.53,643.4c-81.3,21.75-131,6.36-278.85-4.6-346.18-25.68-463.3,29.78-771.36-20.73-95.71-15.7-171.45-35.33-199.17-78.32C750,503.87,765.94,460.44,798.5,431.5c54.19-48.18,154.25-56.05,217.28-59.89,297.54-18.12,494,9.49,760.49,18.43,306.7,10.28,409.57-14.11,449.06,29.94C2277.5,478.18,2172,603.41,2022.53,643.4Z"/></g></g></svg>